Patient4_TMGait_0pt3_03_right_20_EMG.mot
version=1
nRows=16
nColumns=33
inDegrees=no
endheader
time	1LAddLong	2LGlutMax	3LGlutMed	4LIliopsoas	5LSemiMemb	6LBicFemLong	7LRecFem	8LVastMed	9LVastLat	10LGasMed	11LTibAnt	12lTibPost	13LPeroneusLong	14LSol	15LExtDigLong	16LFlexDigLong	17RAddLong	18RGlutMax	19RGlutMed	20RIliopsoas	21RSemiMemb	22RBicFemLong	23RRecFem	24RVastMed	25RVastLat	26RGasMed	27RTibAnt	28RTibPost	29RPeroneusLong	30RSol	31RExtDigLong	32RFlexDigLong
37.52	-0.009918	0.099487	0.056	0.008392	-0.012665	0.10284	0.14008	-0.003357	0.067139	-0.1236	0.004578	0.004272	-0.80475	0.003662	0.059509	0.022125	-0.025177	-0.063934	0.13992	-0.089874	0.041504	-0.010223	0.029755	0.00412	0.005035	0.003357	-0.30365	-0.004578	0.034485	-0.28671	-0.000916	-0.023956
37.521	-0.009766	0.13855	-0.16693	-0.006256	-0.03479	0.024872	0.061646	0.011292	0.001068	-0.10025	-0.006256	0.003815	0.088959	-0.056915	-0.041046	-0.031128	-0.027771	-0.043793	-0.30273	0.025024	0.039368	-0.010071	0.046234	0.027161	-0.002747	0.001831	0.074158	-0.005188	-0.081787	-0.20355	0.000153	-0.019836
37.522	-0.009003	0.15564	0.1059	-0.02243	0.004425	-0.031433	0.053711	0.024414	-0.12512	0.01236	-0.003357	0.066071	0.029144	-0.17975	-0.061646	0.027161	-0.042419	0.002136	-0.10056	0.24185	0.046692	-0.020294	0.11093	0.033417	0.01236	-0.004272	0.46173	-0.00351	-0.025482	-0.046082	-0.002289	-0.026245
37.523	-0.02594	0.13138	0.12985	0.006104	0.03006	-0.077515	-0.029602	0.014038	-0.15228	-0.062256	-0.022736	-0.13763	0.1004	-0.37918	0	0.037842	-0.041962	-0.03418	0.15533	0.42374	0.052795	-0.028076	0.10223	0.017853	0.009308	-0.003204	0.29465	-0.010071	-0.092773	0.094452	0.001068	-0.021362
37.524	-0.027161	0.10346	0.078735	0.009308	-0.009918	-0.10147	-0.19989	0.018311	-0.066528	-0.12772	-0.033722	0.011597	0.15213	-0.31464	0.001068	-0.16312	-0.030365	-0.019684	-0.21606	0.3154	0.070801	-0.027313	0.072479	0.02594	-0.005951	-0.014038	0.095825	-0.00473	-0.20096	0.005646	-0.007629	-0.010681
37.525	-0.003662	0.159	0.19424	0.007629	0.020294	-0.13397	-0.289	0.027924	0.06012	-0.030975	-0.032196	0.10391	0.23529	-0.2739	0.058899	0.29831	-0.009918	0.004425	-0.20416	0.15289	0.072021	-0.02243	0.071411	0.014648	-0.000458	-0.006256	0.015717	0	-0.17441	-0.21194	-0.003052	-0.008392
37.526	0.011597	0.15671	0.21729	-0.004425	0.030365	-0.11597	-0.29404	0.016022	0.07431	0.1976	-0.018768	0.053253	0.25696	0.17685	0.09613	0.060425	0.006866	-0.006866	-0.32181	0.17944	0.073547	-0.043335	0.080261	-0.013733	0.004425	-0.007629	0.039825	-0.006256	-0.073395	-0.27603	0.010071	0
37.527	0.041656	0.20554	0.18387	-0.006409	0.055084	-0.091705	-0.17258	-0.015564	-0.00473	0.44052	-0.017242	0.046997	0.26047	0.5014	0.025635	-0.24628	0.008698	-0.018311	-0.48416	0.082703	0.066833	-0.041656	0.12909	-0.014343	0.027008	-0.003967	0.25681	-0.003052	0.034332	-0.22507	-0.001831	-0.003204
37.528	0.05661	0.23132	0.11261	0.007782	0.054321	-0.036163	-0.094299	-0.016479	0.00824	0.522	-0.021057	0.015411	0.031281	0.84412	-0.051422	-0.14313	0.010681	-0.018311	-0.4953	0.036774	0.068359	-0.031433	0.034332	-0.011749	0.028381	-0.004578	0.15442	-0.011902	0.13763	-0.12955	-0.00061	0.001373
37.529	0.050507	0.25192	0.039368	0.020752	0.042877	0.080109	-0.03067	0	0.043335	0.45532	-0.022583	-0.25589	0.03952	1.0039	-0.11978	0.076141	0.009003	-0.014801	-0.21225	-0.032196	0.068512	-0.030975	0.011902	-0.031738	0.011597	-0.006714	-0.12421	-0.001373	0.1091	-0.039215	-0.003357	0.002136
37.53	0.039673	0.2655	0.011444	0.021362	0.020752	0.10651	-0.05188	0.002441	0.001831	0.30472	-0.007935	-0.53146	-0.18051	0.92545	-0.078888	0.13458	0.010529	-0.055084	-0.16312	-0.085754	0.062714	-0.03952	-0.068665	-0.063629	0.018616	-0.011139	-0.33417	-0.005188	0.097809	0.029144	-0.001373	-0.002747
37.531	0.038452	0.28763	0.074158	-0.011597	0.018005	0.069885	-0.21194	0.011292	0.061493	0.17105	-0.015869	0.34683	0.1329	0.049744	0.016632	0.057068	0.00061	-0.039978	-0.10559	-0.17502	0.06073	-0.034332	-0.12375	-0.037231	0.033722	-0.014648	-0.38635	-0.006104	0.14694	0.10391	0.000305	-0.002899
37.532	0.040131	0.3418	0.14114	-0.015564	0.026398	0.055542	-0.16647	0.001526	0.15762	0.1062	-0.016632	0.45136	0.14633	-1.1514	-0.043182	-0.010529	0.000763	-0.041809	-0.14603	-0.12497	0.068512	-0.033875	-0.090942	-0.000153	0.026703	-0.018768	0.040894	0.003662	0.10819	0.14023	-0.002441	-0.005798
37.533	0.012817	0.36606	0.060883	0.010681	0.019836	0.064545	0.075226	-0.016327	0.13153	0.095062	-0.016022	0.28244	0.51468	-1.2238	-0.10559	-0.019989	0.005188	-0.053711	-0.24002	-0.016022	0.061035	-0.020447	-0.048065	-0.028839	0.017395	-0.007629	0.55801	-0.003357	-0.00061	0.099335	-0.001526	-0.018005
37.534	-0.006256	0.30395	-0.028992	0.03067	-0.005188	0.082855	0.19791	-0.013428	0.12634	-0.002594	0.02121	-0.00473	0.53314	-0.69504	0.058136	-0.003052	-0.004272	-0.06424	-0.27405	0.13107	0.071869	-0.009766	-0.014038	-0.020294	0.015411	-0.005341	0.84534	-0.003357	-0.065918	-0.012817	-0.001831	-0.016479
37.535	-0.024567	0.24216	0.02655	0.018616	-0.01358	0.10162	0.27985	-0.019684	0.006104	-0.021057	0.025482	-0.06546	0.4512	-0.31158	0.15457	-0.025482	0.010071	-0.004578	-0.14984	0.12039	0.069275	-0.007935	-0.040894	-0.028534	0.005493	-0.007935	0.60272	-0.003815	-0.057373	0.004883	-0.002289	-0.00946
